<svg xmlns="http://www.w3.org/2000/svg" viewBox="0 0 1200 1380" width="1200" height="1380" font-family="'Outfit','Inter','Segoe UI',sans-serif">
  <defs>
    <!-- Background gradient -->
    <radialGradient id="bg" cx="50%" cy="30%" r="80%">
      <stop offset="0%" stop-color="#0e1225"/>
      <stop offset="100%" stop-color="#060913"/>
    </radialGradient>
    <!-- Ambient glows -->
    <radialGradient id="ambAmber" cx="50%" cy="10%" r="45%">
      <stop offset="0%" stop-color="rgba(245,166,35,0.07)"/>
      <stop offset="100%" stop-color="transparent"/>
    </radialGradient>
    <radialGradient id="ambViolet" cx="50%" cy="50%" r="40%">
      <stop offset="0%" stop-color="rgba(155,114,207,0.08)"/>
      <stop offset="100%" stop-color="transparent"/>
    </radialGradient>
    <!-- Orb gradient -->
    <radialGradient id="orbGrad" cx="38%" cy="32%">
      <stop offset="0%" stop-color="#ffd680"/>
      <stop offset="50%" stop-color="#f5a623"/>
      <stop offset="100%" stop-color="#b8841a"/>
    </radialGradient>
    <!-- Hub emblem gradient -->
    <radialGradient id="hubGrad" cx="40%" cy="35%">
      <stop offset="0%" stop-color="#c4a8e8"/>
      <stop offset="50%" stop-color="#9b72cf"/>
      <stop offset="100%" stop-color="#5a3d8e"/>
    </radialGradient>
    <!-- Hub card bg -->
    <radialGradient id="hubBg" cx="50%" cy="20%" r="70%">
      <stop offset="0%" stop-color="rgba(155,114,207,0.14)"/>
      <stop offset="65%" stop-color="rgba(12,16,30,0.96)"/>
    </radialGradient>
    <!-- Title gradient -->
    <linearGradient id="titleGrad" x1="0%" y1="0%" x2="100%" y2="100%">
      <stop offset="0%" stop-color="#ffd680"/>
      <stop offset="50%" stop-color="#f5a623"/>
      <stop offset="100%" stop-color="#d4a844"/>
    </linearGradient>
    <linearGradient id="hubTitleGrad" x1="0%" y1="0%" x2="100%" y2="100%">
      <stop offset="0%" stop-color="#c4a8e8"/>
      <stop offset="100%" stop-color="#ffd680"/>
    </linearGradient>
    <!-- Filters -->
    <filter id="glow-amber" x="-50%" y="-50%" width="200%" height="200%">
      <feGaussianBlur in="SourceGraphic" stdDeviation="12" result="blur"/>
      <feComposite in="SourceGraphic" in2="blur" operator="over"/>
    </filter>
    <filter id="glow-violet" x="-50%" y="-50%" width="200%" height="200%">
      <feGaussianBlur in="SourceGraphic" stdDeviation="16" result="blur"/>
      <feComposite in="SourceGraphic" in2="blur" operator="over"/>
    </filter>
    <filter id="soft-shadow" x="-20%" y="-20%" width="140%" height="140%">
      <feDropShadow dx="0" dy="4" stdDeviation="20" flood-color="#000" flood-opacity="0.4"/>
    </filter>
  </defs>

  <!-- ══════════════ BACKGROUND ══════════════ -->
  <rect width="1200" height="1380" fill="url(#bg)"/>
  <rect width="1200" height="1380" fill="url(#ambAmber)"/>
  <rect width="1200" height="1380" fill="url(#ambViolet)"/>

  <!-- Star dots -->
  <g opacity="0.3">
    <circle cx="120" cy="80" r="1" fill="#ede9e0"/><circle cx="340" cy="45" r="0.8" fill="#ede9e0"/>
    <circle cx="560" cy="120" r="1.2" fill="#ede9e0"/><circle cx="780" cy="60" r="0.7" fill="#ede9e0"/>
    <circle cx="980" cy="95" r="1" fill="#ede9e0"/><circle cx="1100" cy="35" r="0.9" fill="#ede9e0"/>
    <circle cx="85" cy="280" r="0.8" fill="#ede9e0"/><circle cx="250" cy="350" r="1" fill="#ede9e0"/>
    <circle cx="1050" cy="220" r="1.1" fill="#ede9e0"/><circle cx="1140" cy="380" r="0.7" fill="#ede9e0"/>
    <circle cx="60" cy="500" r="0.9" fill="#ede9e0"/><circle cx="1120" cy="550" r="1" fill="#ede9e0"/>
    <circle cx="150" cy="700" r="0.8" fill="#ede9e0"/><circle cx="1080" cy="720" r="1.1" fill="#ede9e0"/>
    <circle cx="90" cy="900" r="0.7" fill="#ede9e0"/><circle cx="1140" cy="950" r="0.9" fill="#ede9e0"/>
    <circle cx="200" cy="1050" r="1" fill="#ede9e0"/><circle cx="1000" cy="1100" r="0.8" fill="#ede9e0"/>
    <circle cx="400" cy="180" r="0.6" fill="#ede9e0"/><circle cx="800" cy="160" r="0.9" fill="#ede9e0"/>
    <circle cx="650" cy="1200" r="0.7" fill="#ede9e0"/><circle cx="300" cy="1250" r="1" fill="#ede9e0"/>
    <circle cx="900" cy="1300" r="0.8" fill="#ede9e0"/><circle cx="500" cy="950" r="0.6" fill="#ede9e0"/>
    <circle cx="700" cy="400" r="0.8" fill="#ede9e0"/><circle cx="450" cy="600" r="0.7" fill="#ede9e0"/>
  </g>

  <!-- ══════════════ HEADER ══════════════ -->
  <text x="600" y="60" text-anchor="middle" font-size="38" font-weight="800" letter-spacing="0.25em" fill="url(#titleGrad)">ROOMI ECOSYSTEM</text>
  <text x="600" y="92" text-anchor="middle" font-size="15" font-weight="300" fill="rgba(237,233,224,0.65)" letter-spacing="0.08em">A dignity-first support system for Individuals, Anchors, and Networks</text>

  <!-- ══════════════ TIER 1 — INDIVIDUAL ══════════════ -->
  <!-- Tier label -->
  <circle cx="524" cy="133" r="4" fill="#f5a623" opacity="0.9"/>
  <text x="538" y="137" font-size="10" font-weight="500" letter-spacing="0.14em" fill="#e8c570">TIER 1 — INDIVIDUAL</text>

  <!-- Orb rings -->
  <circle cx="600" cy="220" r="80" fill="none" stroke="rgba(245,166,35,0.12)" stroke-width="1"/>
  <circle cx="600" cy="220" r="64" fill="none" stroke="rgba(245,166,35,0.2)" stroke-width="1"/>
  <circle cx="600" cy="220" r="48" fill="none" stroke="rgba(245,166,35,0.3)" stroke-width="1"/>

  <!-- Orb core -->
  <circle cx="600" cy="220" r="32" fill="url(#orbGrad)" filter="url(#glow-amber)"/>
  <!-- Person icon -->
  <path d="M600 210c3.6 0 6.4-2.8 6.4-6.4s-2.8-6.4-6.4-6.4-6.4 2.8-6.4 6.4 2.8 6.4 6.4 6.4zm0 3.2c-4.27 0-12.8 2.13-12.8 6.4v3.2h25.6v-3.2c0-4.27-8.53-6.4-12.8-6.4z" fill="#fff" opacity="0.95"/>

  <!-- Name + subtitle -->
  <text x="600" y="320" text-anchor="middle" font-size="17" font-weight="600" fill="#ffd680" letter-spacing="0.06em">Person with IDD</text>
  <text x="600" y="340" text-anchor="middle" font-size="12" font-weight="300" fill="rgba(237,233,224,0.65)">The center of everything ROOMI does</text>

  <!-- Context tags -->
  <g font-size="10.5" font-weight="400" fill="rgba(237,233,224,0.65)">
    <rect x="285" y="356" width="88" height="24" rx="12" fill="rgba(245,166,35,0.06)" stroke="rgba(245,166,35,0.14)" stroke-width="1"/>
    <text x="329" y="372" text-anchor="middle">Young Adults</text>
    <rect x="383" y="356" width="80" height="24" rx="12" fill="rgba(245,166,35,0.06)" stroke="rgba(245,166,35,0.14)" stroke-width="1"/>
    <text x="423" y="372" text-anchor="middle">IDD Adults</text>
    <rect x="473" y="356" width="116" height="24" rx="12" fill="rgba(245,166,35,0.06)" stroke="rgba(245,166,35,0.14)" stroke-width="1"/>
    <text x="531" y="372" text-anchor="middle">Independent Living</text>
    <rect x="599" y="356" width="120" height="24" rx="12" fill="rgba(245,166,35,0.06)" stroke="rgba(245,166,35,0.14)" stroke-width="1"/>
    <text x="659" y="372" text-anchor="middle">Transition to Work</text>
    <rect x="729" y="356" width="108" height="24" rx="12" fill="rgba(245,166,35,0.06)" stroke="rgba(245,166,35,0.14)" stroke-width="1"/>
    <text x="783" y="372" text-anchor="middle">Community Life</text>
  </g>

  <!-- ══════════════ CONNECTION LINES ══════════════ -->
  <!-- Individual → Anchor (soft) -->
  <path d="M600,300 C600,390 320,390 320,430" fill="none" stroke="#e8658a" stroke-width="0.9" opacity="0.28" stroke-linecap="round"/>
  <!-- Individual → Network (soft) -->
  <path d="M600,300 C600,390 880,390 880,430" fill="none" stroke="#4ecdc4" stroke-width="0.9" opacity="0.28" stroke-linecap="round"/>
  <!-- Anchor → Hub (strong) -->
  <path d="M320,590 C320,670 560,670 560,720" fill="none" stroke="rgba(155,114,207,0.75)" stroke-width="1.6" opacity="0.55" stroke-linecap="round"/>
  <!-- Network → Hub (strong) -->
  <path d="M880,590 C880,670 640,670 640,720" fill="none" stroke="rgba(155,114,207,0.75)" stroke-width="1.6" opacity="0.55" stroke-linecap="round"/>
  <!-- Hub → Governance (dashed, very subtle) -->
  <path d="M600,900 C600,940 600,940 600,970" fill="none" stroke="rgba(91,155,213,0.35)" stroke-width="0.8" opacity="0.18" stroke-dasharray="5 4" stroke-linecap="round"/>

  <!-- ══════════════ TIERS 2 & 3 — SUPPORT WINGS ══════════════ -->

  <!-- ANCHOR WING (left) -->
  <rect x="70" y="415" width="520" height="175" rx="18" fill="rgba(232,101,138,0.03)" stroke="rgba(232,101,138,0.12)" stroke-width="1"/>
  <!-- Wing icon -->
  <rect x="92" y="435" width="34" height="34" rx="10" fill="rgba(232,101,138,0.12)" stroke="rgba(232,101,138,0.2)" stroke-width="1"/>
  <path d="M109 441l-9 4v6c0 5.55 3.84 10.74 9 12 5.16-1.26 9-6.45 9-12v-6l-9-4zm0 10.99h7c-.53 4.12-3.28 7.79-7 8.94v-8.94h-7v-5.7l7-3.11v8.81z" fill="#f4a0b8" transform="scale(0.7) translate(64,200)"/>
  <text x="138" y="458" font-size="15" font-weight="600" fill="#f4a0b8" letter-spacing="0.05em">Anchor</text>

  <!-- Tier label -->
  <circle cx="94" cy="482" r="4" fill="#e8658a"/>
  <text x="106" y="486" font-size="10" font-weight="500" letter-spacing="0.14em" fill="#f4a0b8">TIER 2 — CAREGIVER INTERFACE</text>

  <text x="92" y="510" font-size="11.5" font-weight="300" fill="rgba(237,233,224,0.65)">Trusted supporters who empower without surveillance.</text>
  <text x="92" y="526" font-size="11.5" font-weight="300" fill="rgba(237,233,224,0.65)">Connection through trust, not control.</text>

  <!-- Anchor tags -->
  <g font-size="10" font-weight="400" fill="rgba(244,160,184,0.8)">
    <rect x="92" y="540" width="62" height="22" rx="11" fill="rgba(232,101,138,0.07)" stroke="rgba(232,101,138,0.14)" stroke-width="1"/>
    <text x="123" y="555" text-anchor="middle">Parents</text>
    <rect x="162" y="540" width="76" height="22" rx="11" fill="rgba(232,101,138,0.07)" stroke="rgba(232,101,138,0.14)" stroke-width="1"/>
    <text x="200" y="555" text-anchor="middle">Guardians</text>
    <rect x="246" y="540" width="86" height="22" rx="11" fill="rgba(232,101,138,0.07)" stroke="rgba(232,101,138,0.14)" stroke-width="1"/>
    <text x="289" y="555" text-anchor="middle">POA Holders</text>
    <rect x="340" y="540" width="56" height="22" rx="11" fill="rgba(232,101,138,0.07)" stroke="rgba(232,101,138,0.14)" stroke-width="1"/>
    <text x="368" y="555" text-anchor="middle">Family</text>
    <rect x="404" y="540" width="120" height="22" rx="11" fill="rgba(232,101,138,0.07)" stroke="rgba(232,101,138,0.14)" stroke-width="1"/>
    <text x="464" y="555" text-anchor="middle">Trusted Supporters</text>
  </g>

  <!-- NETWORK WING (right) -->
  <rect x="610" y="415" width="520" height="175" rx="18" fill="rgba(78,205,196,0.03)" stroke="rgba(78,205,196,0.12)" stroke-width="1"/>
  <!-- Wing icon -->
  <rect x="632" y="435" width="34" height="34" rx="10" fill="rgba(78,205,196,0.12)" stroke="rgba(78,205,196,0.2)" stroke-width="1"/>
  <text x="678" y="458" font-size="15" font-weight="600" fill="#8ee8e2" letter-spacing="0.05em">Network</text>

  <!-- Tier label -->
  <circle cx="634" cy="482" r="4" fill="#4ecdc4"/>
  <text x="646" y="486" font-size="10" font-weight="500" letter-spacing="0.14em" fill="#8ee8e2">TIER 3 — PROFESSIONAL LAYER</text>

  <text x="632" y="510" font-size="11.5" font-weight="300" fill="rgba(237,233,224,0.65)">Where coordination, documentation, and scale live.</text>
  <text x="632" y="526" font-size="11.5" font-weight="300" fill="rgba(237,233,224,0.65)">Professional and institutional support infrastructure.</text>

  <!-- Network tags -->
  <g font-size="10" font-weight="400" fill="rgba(142,232,226,0.8)">
    <rect x="632" y="540" width="48" height="22" rx="11" fill="rgba(78,205,196,0.07)" stroke="rgba(78,205,196,0.14)" stroke-width="1"/>
    <text x="656" y="555" text-anchor="middle">DSPs</text>
    <rect x="688" y="540" width="66" height="22" rx="11" fill="rgba(78,205,196,0.07)" stroke="rgba(78,205,196,0.14)" stroke-width="1"/>
    <text x="721" y="555" text-anchor="middle">Agencies</text>
    <rect x="762" y="540" width="76" height="22" rx="11" fill="rgba(78,205,196,0.07)" stroke="rgba(78,205,196,0.14)" stroke-width="1"/>
    <text x="800" y="555" text-anchor="middle">Therapists</text>
    <rect x="846" y="540" width="74" height="22" rx="11" fill="rgba(78,205,196,0.07)" stroke="rgba(78,205,196,0.14)" stroke-width="1"/>
    <text x="883" y="555" text-anchor="middle">Educators</text>
    <rect x="632" y="568" width="84" height="22" rx="11" fill="rgba(78,205,196,0.07)" stroke="rgba(78,205,196,0.14)" stroke-width="1"/>
    <text x="674" y="583" text-anchor="middle">Job Coaches</text>
    <rect x="724" y="568" width="82" height="22" rx="11" fill="rgba(78,205,196,0.07)" stroke="rgba(78,205,196,0.14)" stroke-width="1"/>
    <text x="765" y="583" text-anchor="middle">Care Teams</text>
  </g>

  <!-- ══════════════ ROOMI HUB ══════════════ -->
  <rect x="280" y="640" width="640" height="260" rx="32" fill="url(#hubBg)" stroke="rgba(155,114,207,0.22)" stroke-width="1" filter="url(#soft-shadow)"/>

  <!-- Hub emblem -->
  <circle cx="600" cy="710" r="36" fill="url(#hubGrad)" filter="url(#glow-violet)"/>
  <path d="M612.8 704.7l-15.6-5.7-.7 1.9 14.1 5.1H599c-1.1 0-2 .9-2 2v4c0 1.1.9 2 2 2h14c1.1 0 2-.9 2-2v-5.5c0-.8-.5-1.6-1.2-1.8z" fill="#fff" opacity="0.94" transform="translate(-6,4) scale(0.9)"/>
  <circle cx="613" cy="701" r="2.5" fill="#fff" opacity="0.94" transform="translate(-6,4) scale(0.9)"/>

  <!-- Hub name -->
  <text x="600" y="775" text-anchor="middle" font-size="28" font-weight="800" letter-spacing="0.18em" fill="url(#hubTitleGrad)">ROOMI HUB</text>
  <text x="600" y="800" text-anchor="middle" font-size="13" font-weight="300" fill="rgba(237,233,224,0.65)" letter-spacing="0.06em">Central Intelligence Layer</text>

  <!-- Hub facets -->
  <rect x="410" y="820" width="170" height="34" rx="17" fill="rgba(155,114,207,0.06)" stroke="rgba(155,114,207,0.14)" stroke-width="1"/>
  <text x="428" y="841" font-size="11" font-weight="400" fill="rgba(237,233,224,0.65)">❤ Personal Companion</text>
  <rect x="595" y="820" width="195" height="34" rx="17" fill="rgba(155,114,207,0.06)" stroke="rgba(155,114,207,0.14)" stroke-width="1"/>
  <text x="613" y="841" font-size="11" font-weight="400" fill="rgba(237,233,224,0.65)">⟐ Ecosystem Intelligence</text>

  <!-- ══════════════ GOVERNANCE LAYER ══════════════ -->
  <g opacity="0.72" transform="translate(24,0) scale(0.96)">
    <!-- Divider -->
    <line x1="100" y1="960" x2="500" y2="960" stroke="rgba(91,155,213,0.2)" stroke-width="1"/>
    <text x="600" y="964" text-anchor="middle" font-size="9.5" font-weight="500" letter-spacing="0.14em" fill="#8ec4ee" opacity="0.7">GOVERNANCE &amp; OVERSIGHT</text>
    <line x1="700" y1="960" x2="1100" y2="960" stroke="rgba(91,155,213,0.2)" stroke-width="1"/>

    <!-- ── Digital Board Row ── -->
    <!-- Ledger -->
    <rect x="85" y="985" width="155" height="90" rx="12" fill="rgba(12,16,30,0.4)" stroke="rgba(91,155,213,0.07)" stroke-width="1"/>
    <rect x="147" y="998" width="28" height="28" rx="8" fill="rgba(245,190,70,0.1)" stroke="rgba(245,190,70,0.15)" stroke-width="1"/>
    <text x="163" y="1044" text-anchor="middle" font-size="10" font-weight="600" fill="rgba(237,233,224,0.85)">Ledger</text>
    <text x="163" y="1058" text-anchor="middle" font-size="8" font-weight="300" fill="rgba(237,233,224,0.28)">Finance Intelligence</text>

    <!-- Beacon -->
    <rect x="255" y="985" width="155" height="90" rx="12" fill="rgba(12,16,30,0.4)" stroke="rgba(91,155,213,0.07)" stroke-width="1"/>
    <rect x="317" y="998" width="28" height="28" rx="8" fill="rgba(232,120,100,0.1)" stroke="rgba(232,120,100,0.15)" stroke-width="1"/>
    <text x="333" y="1044" text-anchor="middle" font-size="10" font-weight="600" fill="rgba(237,233,224,0.85)">Beacon</text>
    <text x="333" y="1058" text-anchor="middle" font-size="8" font-weight="300" fill="rgba(237,233,224,0.28)">Fundraising Intelligence</text>

    <!-- Guardian -->
    <rect x="425" y="985" width="155" height="90" rx="12" fill="rgba(12,16,30,0.4)" stroke="rgba(91,155,213,0.07)" stroke-width="1"/>
    <rect x="487" y="998" width="28" height="28" rx="8" fill="rgba(150,180,220,0.1)" stroke="rgba(150,180,220,0.15)" stroke-width="1"/>
    <text x="503" y="1044" text-anchor="middle" font-size="10" font-weight="600" fill="rgba(237,233,224,0.85)">Guardian</text>
    <text x="503" y="1058" text-anchor="middle" font-size="8" font-weight="300" fill="rgba(237,233,224,0.28)">Legal Intelligence</text>

    <!-- Circuit -->
    <rect x="595" y="985" width="155" height="90" rx="12" fill="rgba(12,16,30,0.4)" stroke="rgba(91,155,213,0.07)" stroke-width="1"/>
    <rect x="657" y="998" width="28" height="28" rx="8" fill="rgba(130,200,255,0.1)" stroke="rgba(130,200,255,0.15)" stroke-width="1"/>
    <text x="673" y="1044" text-anchor="middle" font-size="10" font-weight="600" fill="rgba(237,233,224,0.85)">Circuit</text>
    <text x="673" y="1058" text-anchor="middle" font-size="8" font-weight="300" fill="rgba(237,233,224,0.28)">Technology Intelligence</text>

    <!-- Horizon -->
    <rect x="765" y="985" width="155" height="90" rx="12" fill="rgba(12,16,30,0.4)" stroke="rgba(91,155,213,0.07)" stroke-width="1"/>
    <rect x="827" y="998" width="28" height="28" rx="8" fill="rgba(245,180,100,0.1)" stroke="rgba(245,180,100,0.15)" stroke-width="1"/>
    <text x="843" y="1044" text-anchor="middle" font-size="10" font-weight="600" fill="rgba(237,233,224,0.85)">Horizon</text>
    <text x="843" y="1058" text-anchor="middle" font-size="8" font-weight="300" fill="rgba(237,233,224,0.28)">IDD Services Intelligence</text>

    <!-- Echo -->
    <rect x="935" y="985" width="155" height="90" rx="12" fill="rgba(12,16,30,0.4)" stroke="rgba(91,155,213,0.07)" stroke-width="1"/>
    <rect x="997" y="998" width="28" height="28" rx="8" fill="rgba(160,140,220,0.1)" stroke="rgba(160,140,220,0.15)" stroke-width="1"/>
    <text x="1013" y="1044" text-anchor="middle" font-size="10" font-weight="600" fill="rgba(237,233,224,0.85)">Echo</text>
    <text x="1013" y="1058" text-anchor="middle" font-size="7.5" font-weight="300" fill="rgba(237,233,224,0.28)">Communications Intelligence</text>

    <!-- Pair connectors -->
    <line x1="163" y1="1080" x2="163" y2="1100" stroke="rgba(91,155,213,0.15)" stroke-width="1"/>
    <line x1="333" y1="1080" x2="333" y2="1100" stroke="rgba(91,155,213,0.15)" stroke-width="1"/>
    <line x1="503" y1="1080" x2="503" y2="1100" stroke="rgba(91,155,213,0.15)" stroke-width="1"/>
    <line x1="673" y1="1080" x2="673" y2="1100" stroke="rgba(91,155,213,0.15)" stroke-width="1"/>
    <line x1="843" y1="1080" x2="843" y2="1100" stroke="rgba(91,155,213,0.15)" stroke-width="1"/>
    <line x1="1013" y1="1080" x2="1013" y2="1100" stroke="rgba(91,155,213,0.15)" stroke-width="1"/>

    <!-- ── Human Board Row ── -->
    <!-- Treasurer -->
    <rect x="85" y="1105" width="155" height="80" rx="12" fill="rgba(12,16,30,0.2)" stroke="rgba(91,155,213,0.06)" stroke-width="1" stroke-dasharray="4 3"/>
    <text x="163" y="1148" text-anchor="middle" font-size="10" font-weight="600" fill="rgba(237,233,224,0.85)">Treasurer</text>
    <text x="163" y="1162" text-anchor="middle" font-size="8" font-weight="300" fill="rgba(237,233,224,0.28)">↔ Ledger</text>

    <!-- Fundraising Chair -->
    <rect x="255" y="1105" width="155" height="80" rx="12" fill="rgba(12,16,30,0.2)" stroke="rgba(91,155,213,0.06)" stroke-width="1" stroke-dasharray="4 3"/>
    <text x="333" y="1148" text-anchor="middle" font-size="10" font-weight="600" fill="rgba(237,233,224,0.85)">Fundraising Chair</text>
    <text x="333" y="1162" text-anchor="middle" font-size="8" font-weight="300" fill="rgba(237,233,224,0.28)">↔ Beacon</text>

    <!-- Legal Advisor -->
    <rect x="425" y="1105" width="155" height="80" rx="12" fill="rgba(12,16,30,0.2)" stroke="rgba(91,155,213,0.06)" stroke-width="1" stroke-dasharray="4 3"/>
    <text x="503" y="1148" text-anchor="middle" font-size="10" font-weight="600" fill="rgba(237,233,224,0.85)">Legal Advisor</text>
    <text x="503" y="1162" text-anchor="middle" font-size="8" font-weight="300" fill="rgba(237,233,224,0.28)">↔ Guardian</text>

    <!-- Tech Lead -->
    <rect x="595" y="1105" width="155" height="80" rx="12" fill="rgba(12,16,30,0.2)" stroke="rgba(91,155,213,0.06)" stroke-width="1" stroke-dasharray="4 3"/>
    <text x="673" y="1148" text-anchor="middle" font-size="10" font-weight="600" fill="rgba(237,233,224,0.85)">Tech Lead</text>
    <text x="673" y="1162" text-anchor="middle" font-size="8" font-weight="300" fill="rgba(237,233,224,0.28)">↔ Circuit</text>

    <!-- Disability Services Pro -->
    <rect x="765" y="1105" width="155" height="80" rx="12" fill="rgba(12,16,30,0.2)" stroke="rgba(91,155,213,0.06)" stroke-width="1" stroke-dasharray="4 3"/>
    <text x="843" y="1142" text-anchor="middle" font-size="9.5" font-weight="600" fill="rgba(237,233,224,0.85)">Disability Services Pro</text>
    <text x="843" y="1162" text-anchor="middle" font-size="8" font-weight="300" fill="rgba(237,233,224,0.28)">↔ Horizon</text>

    <!-- Communications Lead -->
    <rect x="935" y="1105" width="155" height="80" rx="12" fill="rgba(12,16,30,0.2)" stroke="rgba(91,155,213,0.06)" stroke-width="1" stroke-dasharray="4 3"/>
    <text x="1013" y="1142" text-anchor="middle" font-size="9.5" font-weight="600" fill="rgba(237,233,224,0.85)">Communications Lead</text>
    <text x="1013" y="1162" text-anchor="middle" font-size="8" font-weight="300" fill="rgba(237,233,224,0.28)">↔ Echo</text>
  </g>

  <!-- ══════════════ LEGEND ══════════════ -->
  <rect x="180" y="1280" width="840" height="36" rx="12" fill="rgba(12,16,30,0.45)" stroke="rgba(255,255,255,0.04)" stroke-width="1"/>
  <g font-size="10" font-weight="400" fill="rgba(237,233,224,0.65)">
    <!-- Individual -->
    <circle cx="250" cy="1298" r="4" fill="#f5a623"/><text x="262" y="1302">Individual</text>
    <!-- Anchor -->
    <circle cx="340" cy="1298" r="4" fill="#e8658a"/><text x="352" y="1302">Anchor</text>
    <!-- Network -->
    <circle cx="415" cy="1298" r="4" fill="#4ecdc4"/><text x="427" y="1302">Network</text>
    <!-- Hub -->
    <circle cx="500" cy="1298" r="4" fill="#9b72cf"/><text x="512" y="1302">ROOMI Hub</text>
    <!-- Support Flow -->
    <line x1="598" y1="1298" x2="620" y2="1298" stroke="#f5a623" stroke-width="2"/>
    <text x="628" y="1302">Support Flow</text>
    <!-- Governance -->
    <line x1="720" y1="1298" x2="742" y2="1298" stroke="rgba(91,155,213,0.5)" stroke-width="2" stroke-dasharray="4 3"/>
    <text x="750" y="1302">Governance</text>
  </g>

  <!-- ══════════════ FOOTER ══════════════ -->
  <text x="600" y="1340" text-anchor="middle" font-size="10" font-weight="300" fill="rgba(237,233,224,0.35)" letter-spacing="0.08em">ROOMI · Dignity-First Ecosystem</text>

</svg>
